<svg width="20" height="20" viewBox="0 0 20 20" fill="none" xmlns="http://www.w3.org/2000/svg">
<path fill-rule="evenodd" clip-rule="evenodd" d="M10 2L2 8.5V17a1 1 0 0 0 1 1h4.5v-4.5h5V18H17a1 1 0 0 0 1-1V8.5L10 2zm0-1.5L1 8.1V17a2 2 0 0 0 2 2h5.5v-4.5h3V19H17a2 2 0 0 0 2-2V8.1L10 .5z" fill="black"/>
<path fill-rule="evenodd" clip-rule="evenodd" d="M0 2C0 .895.895 0 2 0h16c1.105 0 2 .895 2 2v16c0 1.105-.895 2-2 2H2c-1.105 0-2-.895-2-2V2zm2-1h16c.552 0 1 .448 1 1v16c0 .552-.448 1-1 1H2c-.552 0-1-.448-1-1V2c0-.552.448-1 1-1z" fill="black"/>
</svg>
