<svg width="20" height="20" viewBox="0 0 20 20" fill="none" xmlns="http://www.w3.org/2000/svg">
<path fill-rule="evenodd" clip-rule="evenodd" d="M13.293 2.293a1 1 0 0 1 1.414 0l3 3a1 1 0 0 1 0 1.414l-9 9A1 1 0 0 1 8 16H5a1 1 0 0 1-1-1v-3a1 1 0 0 1 .293-.707l9-9zM6 12.414V15h2.586l8-8L14 4.414l-8 8zM3 18a1 1 0 1 0 0-2 1 1 0 0 0 0 2z" fill="black"/>
<path fill-rule="evenodd" clip-rule="evenodd" d="M0 2C0 0.895431 0.895431 0 2 0H18C19.1046 0 20 0.895431 20 2V18C20 19.1046 19.1046 20 18 20H2C0.895431 20 0 19.1046 0 18V2ZM2 1H18C18.5523 1 19 1.44772 19 2V18C19 18.5523 18.5523 19 18 19H2C1.44772 19 1 18.5523 1 18V2C1 1.44772 1.44772 1 2 1Z" fill="black"/>
</svg>
